<?xml version="1.0" standalone="no"?>
<!DOCTYPE svg PUBLIC "-//W3C//DTD SVG 20010904//EN"
 "http://www.w3.org/TR/2001/REC-SVG-20010904/DTD/svg10.dtd">
<svg version="1.0" xmlns="http://www.w3.org/2000/svg"
 width="666.000000pt" height="532.000000pt" viewBox="0 0 666.000000 532.000000"
 preserveAspectRatio="xMidYMid meet">
<metadata>
Created by potrace 1.16, written by Peter Selinger 2001-2019
</metadata>
<g transform="translate(0.000000,532.000000) scale(0.100000,-0.100000)"
fill="#FFFFFF" stroke="none">
<path d="M300 4430 l0 -590 330 0 330 0 0 -590 0 -590 460 0 460 0 0 -592 0
-593 390 2 390 3 0 -590 0 -590 595 0 595 0 0 590 0 590 590 0 590 0 0 150 0
150 470 0 470 0 0 265 0 265 195 0 195 0 0 960 0 960 -195 0 -195 0 0 245 0
245 -470 0 -470 0 0 150 0 150 -595 0 -595 0 0 -280 0 -280 -590 0 -590 0 0
-595 0 -595 595 0 595 0 0 285 0 285 760 0 760 0 0 -590 0 -590 -765 0 -765 0
0 -590 0 -590 -385 0 -385 0 0 590 0 590 -462 2 -463 3 -3 588 -2 587 -325 0
-325 0 0 590 0 590 -595 0 -595 0 0 -590z"/>
<path d="M300 1355 l0 -1055 595 0 595 0 0 1055 0 1055 -595 0 -595 0 0 -1055z"/>
</g>
</svg>
